<svg version="1.1" id="Layer_1" xmlns="http://www.w3.org/2000/svg" x="0" y="0" viewBox="0 0 800 197.032" xml:space="preserve"><g fill="#e4dac8"><path d="M646.375 49.551c.456-2.285.757-4.454 1.334-6.548 1.165-4.228 3.506-5.867 7.228-5.276 2.718.432 5.973 4.799 5.546 7.949-.864 6.374-1.976 12.714-2.983 19.069-1.396 8.814-3.951 17.505-2.775 26.592.62 4.793 2.056 9.023 6.36 11.95 6.862 4.667 16.581.419 17.909-7.675 1.119-6.822 2.834-13.549 4.367-20.299 1.407-6.197 2.586-12.475 4.479-18.525 2.306-7.369 4.963-14.662 8.017-21.751 2.424-5.628 5.416-11.059 8.624-16.29 3.935-6.419 8.986-11.953 15.141-16.398 3.432-2.478 10.179-3.727 14.79.005 4.1 3.318 5.121 8.465 5.022 13.435-.099 4.997-.548 10.137-1.882 14.925-2.264 8.124-4.981 16.17-8.202 23.962-2.279 5.514-5.39 10.764-8.698 15.754-3.819 5.76-8.427 10.992-12.39 16.666-4.857 6.954-15.444 18.875-8.739 27.816 2.954 3.939 7.253 6.307 12.247 6.028 7.355-.411 11.388-5.282 12.436-11.835.525-3.285.507-6.903 1.914-9.958 1.239-2.69 2.366-5.511 3.679-8.202 3.112-6.378 7.522-12.018 12.077-17.419 5.058-5.997 12.166-8.078 19.777-6.299 7.123 1.665 10.206 7.248 10.939 16.424.838 10.494-4.524 17.908-10.503 25.165-3.817 4.633-8.256 8.756-12.444 13.08-1.934 1.997-1.114 6.603 1.432 8.173 6.744 4.157 13.661 3.861 20.517.549 4.775-2.307 9.549-4.753 13.614-8.205 1.771-1.504 3.439-3.1 5.214-4.605 1.577-1.336 3.485-2.628 5.653-2.084.223.056.442.13.655.218 1.797.739 2.892 2.738 3.186 4.624.643 4.129-2.466 7.982-5.257 10.657-3.15 3.019-6.938 5.279-10.795 7.27-5.014 2.589-11.022 3.213-16.535 4.887-5.804 1.762-11.541.503-17.29-.108-5.901-.627-10.718-3.681-15.248-7.249-2.227-1.754-6.257-6.142-9.324-5.998-1.917.09-4.334 1.445-6.243 2.097-3.09 1.055-6.691 1.849-9.96 2.1-4.422.339-9.218-.195-12.871-2.722-2.747-1.9-5.145-4.148-7.3-6.694-1.88-2.222-3.117-4.886-5.425-6.743-4.036-3.248-9.361-3.363-14.15-1.958-5.68 1.666-11.398.525-16.202-3.099-4.246-3.203-10.498-10.667-12.714-10.667-1.11 0-2.638 1.967-3.776 3.389-3.925 4.906-9.165 7.998-15.448 8.583-2.484.232-5.632-.183-8.011.627-2.856.972-4.451 4.315-6.343 6.432-6.266 7.012-12.43 11.673-22.329 11.468-8.93-.185-15.788-5.881-20.647-12.96-3.655-5.323-3.657-11.636-4.864-17.63-1.103-5.479-2.185-10.967-3.492-16.399-1.018-4.232-3.438-6.663-6.855-6.587-1.704.038-3.828.819-4.997 2.013-5.846 5.973-8.801 13.597-11.713 21.267-1.368 3.602-3.002 7.277-5.324 10.298-2.659 3.459-6.99 2.822-8.614-1.287-1.478-3.739-2.066-7.899-2.572-11.933-.624-4.976-.454-10.057-1.176-15.013-.982-6.738-2.167-13.482-3.855-20.073-1.561-6.097-6.501-10.919-13.097-8.77-1.703.555-3.503 1.663-4.615 3.038-6.638 8.202-10.225 17.829-12.208 28.057-2.675 13.8-5.109 27.646-7.687 41.465-.409 2.192-.744 4.472-1.635 6.48-1.013 2.282-2.271 4.68-5.506 4.521-4.449-.219-6.988-1.415-7.482-5.093-1.997-14.872-.589-29.96-2.8-44.8-1.294-8.682-4.384-16.041-8.314-23.809-6.024-11.905-15.73-18.421-28.976-19.271-4.375-.281-8.822.529-13.234.855-2.803.207-5.372-.065-6.874-2.93-1.482-2.828.063-4.635 2.001-6.415 4.01-3.682 9.08-5.149 14.145-5.282 9.244-.243 18.289 1.157 26.351 6.391 9.653 6.267 16.419 15.026 20.729 25.416 2.296 5.535 3.543 10.958 4.859 16.775 1.173 5.18 3.448-3.022 3.887-4.431a222.221 222.221 0 0 1 5.881-16.562c3.468-8.632 9.979-14.671 18.93-17.383 9.807-2.971 24.674 4.208 27.328 15.541a249.063 249.063 0 0 1 3.799 19.73c.456 3.031 1.844 2.89 3.878 2.059.701-.286 1.364-.826 1.869-1.404 2.929-3.354 5.795-6.763 8.702-10.136 4.048-4.697 10.966-6.182 16.538-3.559 2.186 1.029 4.619 1.749 6.488 3.194 6.168 4.769 7.371 11.991 8.582 19.036 1.214 7.062 1.56 14.302 3.165 21.262 1.084 4.698 3.946 8.457 8.996 8.869 5.437.444 8.853-2.18 12.366-5.929 4.289-4.577 4.623-10.724 4.623-16.885 0-8.853 2.678-17.359 6.267-25.55 3.034-6.924 7.297-12.796 13.389-17.194 6.094-4.399 12.969-6.09 20.413-4.469 1.767.381 3.383 1.458 5.031 2.2zm54.799 30.812c7.657-7.105 15.194-21.474 20.596-33.525 2.281-5.088 4.383-10.345 5.733-15.734 1.227-4.898 1.863-14.197 1.863-15.141s-.952-1.643-2.265-.807c-13.346 8.495-29.957 48.005-29.967 66.369 0 1.584.902 1.75 4.04-1.162zm-84.805 7.294c-.105 2.616.184 5.28.988 8.079.976 3.398 4.448 4.284 7.507 2.56 4.297-2.422 5.59-6.822 7.532-10.786 3.618-7.383 8.397-14.296 9.164-22.852.282-3.147-.763-4.529-4.031-4.558-4.38-.04-8.225 1.699-11.229 4.58-3.25 3.117-5.583 7.004-7.184 11.191-1.535 4.01-2.589 7.842-2.747 11.786zm145.048-4.666c0-1.63-.418-3.281-1.668-4.211-1.76-1.308-4.616-.489-6.221.703-8.463 6.286-12.424 15.143-13.454 25.425-.095.951.482 2.649 1.099 2.835.986.297 2.447-.102 3.386-.707 1.961-1.264 3.677-2.9 5.555-4.301 4.674-3.486 7.861-7.855 10.012-13.228.478-1.194 1.291-4.846 1.291-6.516z"/><path d="M423.272 64.795a7.268 7.268 0 0 0-2.086-.352c-2.313-.027-4.228 1.231-5.693 3.739a79.87 79.87 0 0 0-1.668 3.056c-1.036 1.965-2.015 3.822-3.276 5.492-7.41 9.815-14.463 15.736-22.87 19.2-2.407.992-6.198 2.798-7.942-.023-1.332-2.154-1.191-5.249-1.337-7.684-.508-8.464-3.938-15.629-9.329-22.129-4.042-4.873-9.53-7.595-15.453-7.664a19.937 19.937 0 0 0-4.907.56c-6.006 1.447-10.852 5.369-13.645 11.041-.873 1.773-1.583 3.636-2.269 5.439-.327.859-.654 1.718-.999 2.569-2.614 6.447-1.534 12.69 3.303 19.086 4.911 6.493 11.51 10.959 19.614 13.277 1.359.389 2.174.86 2.491 1.44.205.375.218.845.04 1.436-1.681 5.581-7.518 10.071-13.012 10.007a9.221 9.221 0 0 1-3.554-.742c-4.102-1.762-5.371-5.645-6.239-9.147-.65-2.625-.669-5.519-.688-8.317-.004-.576-.007-1.151-.016-1.723-.061-3.891-2.152-8.298-6.216-9.482-4.875-1.421-8.491 2.433-8.817 7.097-.388 5.564-1.024 5.836-5.865 8.24-1.864.925-4.368 1.65-5.981 1.632-2.257-.026-4.16-1.403-5.358-3.877-1.26-2.601-1.142-6.296-.945-8.848.394-5.081.952-10.242 1.492-15.234.444-4.103.903-8.346 1.269-12.532.564-6.451-.825-11.916-4.016-15.805-3.744-4.562-8.591-7.007-14.017-7.07-3.319-.039-6.652.821-9.907 2.556-5.387 2.872-9.832 7.088-13.431 11.987-4.162 5.666-6.01 11.824-8.377 18.368-.551 1.523-1.108 5.786-3.299 5.776-1.47-.006-1.017-4.552-1.078-5.36-.738-9.731-1.929-19.185-3.829-28.859-.721-3.67-3.196-6.34-6.968-7.519a5.334 5.334 0 0 0-1.522-.249c-2.428-.028-4.217 1.742-5.795 3.304l-.189.187c-4.1 4.039-2.076 8.664-1.793 13.594.309 5.396-.649 10.869-1.739 16.133-1.78 8.597-4.532 17.319-7.955 25.339-4.765 11.165-11.416 18.344-20.929 22.592-4.925 2.2-9.517 3.243-14.039 3.191-2.845-.033-5.639-.489-8.541-1.396-3.956-1.235-7.753-3.485-9.43-7.449-1.668-3.942-1.855-7.911 2.752-9.469 2.16-.73 4.356-1.364 6.513-2.089 8.666-2.911 17.829-9.402 22.86-17.055 3.849-5.855 5.934-12.117 6.195-18.612.234-5.83-3.67-13.162-9.856-14.783a22.445 22.445 0 0 0-5.409-.749c-6.141-.071-11.893 2.483-18.103 8.039-5.417 4.846-9.989 10.59-13.6 16.894-1.93 3.369-4.644 14.228-9.745 13.728-2.974-.292-4.947-3.152-6.702-5.317-4.64-5.722-6.827-11.164-9.905-17.759-3.679-7.882-8.003-12.041-17.207-12.148-6.582-.076-12.309 2.81-16.408 7.909-2.014 2.505-3.6 5.335-4.965 8.237-.459.976-3.572 7.287-4.275 4.149-1.37-6.12.554-12.553-.544-18.788-.992-5.633-3.493-11.11-7.993-14.788-2.338-1.911-5.451-2.943-9.002-2.984-5.777-.067-11.668 2.508-15.008 6.559-5.432 6.59-9.585 14.083-13.023 21.875-1.102 2.497-6.248 15.643-10.071 13-1.383-.956-1.196-2.648-1.405-4.083-2.221-15.306-7.187-37.922-27.503-36.584-10.46.689 2.335 13.158 4.596 16.467 4.884 7.149 7.814 15.129 10.062 23.437 2.981 11.018 4.354 22.381 4.694 33.775.181 6.058-.251 12.157 4.171 17.043 1.51 1.668 3.444 2.599 5.447 2.622 2.851.033 5.2-1.764 6.129-4.688.557-1.755.733-3.603.904-5.39.157-1.649.306-3.207.729-4.683 3.797-13.262 7.089-24.137 10.359-34.223 1.686-5.201 3.869-10.762 6.872-17.503 1.299-2.916 2.665-5.813 4.319-8.547 1.54-2.546 3.179-5.229 6.436-5.562 1.559-.159 3.234.421 4.173 1.677 2.209 2.952 3.135 7.072 3.151 10.706.021 4.782.224 9.516.393 14.288.156 4.396.282 8.793.408 13.19.082 2.873.164 5.745.255 8.617.171 5.406 2.963 8.56 8.076 9.122.151.017.303.026.456.027 3.163.037 6.578-3.087 7.773-7.113 1.483-4.994 2.974-9.985 4.466-14.976l.171-.571c1.517-5.076 3.476-10.387 7.506-14.849 1.949-2.159 4.105-3.24 6.406-3.213 2.944.034 5.955 1.908 8.259 5.14 1.617 2.268 2.888 4.888 4.119 7.422.794 1.636 1.615 3.327 2.533 4.939 5.1 8.958 11.272 14.186 19.424 16.454.81.225 1.953 1.539 2.309 2.652 2.503 7.832 6.668 14.349 12.733 19.926 6.512 5.988 14.796 7.588 22.105 8.999a31.56 31.56 0 0 0 5.596.572c3.009.035 5.989-.355 9.111-1.193 6.812-1.828 12.966-5.557 19.955-12.092 5.317-4.971 9.831-10.82 12.789-17.498 1.34-3.024 4.071-15.447 5.668-18.512 2.121-4.073 2.728 2.291 3.001 3.786 1.32 7.234.373 21.681 10.309 22.527.133.011.267.018.404.019 3.171.036 6.189-2.509 7.022-5.921.593-2.432 1.063-4.928 1.516-7.342.643-3.421 1.309-6.959 2.33-10.299 2.896-9.471 6.943-20.38 15.006-29.472 1.58-1.782 3.31-2.124 5.588-2.098.352.004.704.016 1.054.027.361.012.719.023 1.108.028 1.439.017 2.239 1.223 2.852 4.301 1.074 5.401.445 10.896-.165 16.209-.27 2.358-.55 4.796-.683 7.215-.044.811-.095 1.624-.147 2.435-.577 9.19-1.174 18.693 8.027 25.931 4.261 3.352 8.214 5.597 13.687 5.661 3.72.038 6.422-1.678 9.035-3.338.861-.547 1.75-1.111 2.648-1.59 1.828-.973 3.37-1.439 4.716-1.423 1.966.023.977 6.152 3.943 9.492 5.286 5.952 11.414 9.139 18.501 9.221 2.288.027 4.705-.263 7.185-.86 5.662-1.363 10.322-4.926 14.665-11.211 5.434-7.862 11.34-12.362 19.151-14.592 5.994-1.712 11.238-4.188 15.165-7.162 6.088-4.61 11.791-9.899 17.306-15.013a905.061 905.061 0 0 1 4.1-3.787c3.882-3.557 5.668-7.129 5.621-11.238-.035-3.238-2.973-6.988-6.284-8.027zm-62.574 36.01c-.658-.008-1.406-.138-2.224-.389-8.535-2.613-13.979-6.283-14.751-16.495-.313-4.147 1.843-8.927 4.871-11.705 1.449-1.329 3.556-2.507 5.604-2.156 7.012 1.202 10.115 10.2 11.098 16.344.681 4.258-.483 8.536-1.825 12.563-.423 1.271-1.304 1.855-2.773 1.838zM185.09 69.69c.749-.523 1.524-.795 2.241-.786 4.946.057 3.959 7.754 2.5 10.463-2.106 3.909-5.926 6.545-9.197 9.401-2.715 2.37-5.594 4.599-8.753 6.349-1.296.718-3.913 2.224-4.133-.28-.251-2.851 2.24-6.251 3.64-8.581l.027-.045c3.328-5.698 7.404-12.143 13.675-16.521z"/></g><g fill="#e4dac8"><path d="M171.161 189.558v3.368h1.692c.712 0 1.218.137 1.52.411.301.274.452.729.452 1.364 0 .646-.153 1.111-.46 1.396-.307.285-.811.427-1.511.427h-5.683c-.723 0-1.24-.142-1.552-.427-.312-.285-.468-.749-.468-1.396 0-.581.148-1.021.443-1.323s.728-.452 1.298-.452h.28v-12.254h-.28c-.558 0-.988-.156-1.289-.468-.301-.312-.452-.758-.452-1.338 0-.635.159-1.098.476-1.388.318-.29.832-.436 1.544-.436h6.784c2.683 0 4.712.515 6.086 1.544 1.375 1.029 2.062 2.546 2.062 4.55 0 2.113-.684 3.712-2.053 4.796-1.369 1.085-3.4 1.627-6.094 1.627h-2.795zm0-8.887v5.191h2.333c1.292 0 2.264-.218 2.915-.657.651-.438.978-1.095.978-1.971 0-.822-.337-1.454-1.01-1.897-.674-.444-1.634-.666-2.883-.666h-2.333zM203.726 180.671v12.254h2.76c.745 0 1.278.14 1.602.418.323.28.484.731.484 1.356 0 .635-.164 1.098-.493 1.388s-.86.435-1.593.435h-9.757c-.745 0-1.279-.142-1.602-.427-.323-.285-.484-.749-.484-1.396 0-.635.159-1.089.476-1.364.318-.273.854-.411 1.61-.411h2.76V180.67h-2.76c-.745 0-1.279-.142-1.602-.427-.323-.285-.484-.744-.484-1.379 0-.646.159-1.106.476-1.38.318-.273.854-.411 1.61-.411h9.757c.777 0 1.32.137 1.626.411.307.274.46.734.46 1.38 0 .635-.159 1.095-.476 1.379-.318.285-.854.427-1.61.427h-2.76zM227.559 192.892h5.519v-2.661c0-.722.15-1.251.452-1.586.301-.334.781-.501 1.437-.501.58 0 1.016.156 1.306.468.29.312.435.785.435 1.42v.197l-.164 4.238c-.044.975-.189 1.561-.435 1.758-.246.197-.753.295-1.52.295h-10.858c-.559 0-1.002-.142-1.33-.427-.328-.285-.493-.667-.493-1.15 0-.241.041-.49.123-.748.082-.257.189-.49.32-.698l8.854-12.862h-5.092l-.098 2.333c-.033.756-.195 1.292-.485 1.609-.29.318-.758.477-1.404.477-.581 0-1.016-.159-1.306-.477-.29-.317-.435-.788-.435-1.413v-.197l.164-3.91c.044-.964.178-1.541.403-1.733.224-.191.742-.287 1.552-.287h10.463c.559 0 .999.146 1.322.436.323.29.485.671.485 1.142 0 .252-.038.512-.115.78a2.771 2.771 0 0 1-.312.715l-8.788 12.782zM255.716 192.892h5.519v-2.661c0-.722.15-1.251.452-1.586.301-.334.781-.501 1.437-.501.58 0 1.016.156 1.306.468.29.312.435.785.435 1.42v.197l-.164 4.238c-.044.975-.189 1.561-.435 1.758-.246.197-.753.295-1.52.295h-10.858c-.559 0-1.002-.142-1.33-.427-.328-.285-.493-.667-.493-1.15 0-.241.041-.49.123-.748.082-.257.189-.49.32-.698l8.854-12.862h-5.092l-.098 2.333c-.033.756-.195 1.292-.485 1.609-.29.318-.758.477-1.404.477-.581 0-1.016-.159-1.306-.477-.29-.317-.435-.788-.435-1.413v-.197l.164-3.91c.044-.964.178-1.541.403-1.733.224-.191.742-.287 1.552-.287h10.463c.559 0 .999.146 1.322.436.323.29.485.671.485 1.142 0 .252-.038.512-.115.78a2.771 2.771 0 0 1-.312.715l-8.788 12.782zM295.499 192.926h.279c.591 0 1.04.15 1.347.452.307.301.46.742.46 1.323 0 .646-.162 1.111-.484 1.396-.323.285-.857.427-1.602.427h-4.944c-.756 0-1.292-.14-1.61-.419-.318-.279-.476-.747-.476-1.404 0-.635.159-1.089.476-1.364.318-.273.854-.411 1.61-.411h.575l-.673-1.922h-7.096l-.706 1.922h.575c.744 0 1.278.14 1.601.418.323.28.485.731.485 1.356 0 .646-.162 1.111-.485 1.396-.323.285-.857.427-1.601.427h-4.238c-.756 0-1.292-.142-1.61-.427-.318-.285-.477-.749-.477-1.396 0-.581.154-1.021.46-1.323.306-.301.755-.452 1.347-.452h.28l4.402-12.254h-1.314c-.745 0-1.279-.142-1.602-.427-.323-.285-.484-.744-.484-1.379 0-.646.161-1.112.484-1.397.323-.285.857-.427 1.602-.427h6.16c.974 0 1.659.526 2.053 1.578v.049l5.206 14.258zm-8.608-12.255l-2.382 6.932h4.763l-2.381-6.932zM351.591 189.722v-9.051h-.903c-.723 0-1.24-.142-1.552-.427-.312-.285-.468-.744-.468-1.379s.156-1.098.468-1.388c.312-.29.829-.436 1.552-.436h4.665c.712 0 1.226.146 1.544.436.318.29.477.753.477 1.388 0 .58-.151 1.026-.452 1.338-.301.312-.731.468-1.289.468h-.279v14.915c0 .515-.055.838-.164.97-.11.131-.356.197-.739.197h-1.643c-.525 0-.895-.055-1.109-.164-.214-.109-.397-.301-.55-.575l-6.833-12.008v8.92h.953c.712 0 1.221.137 1.528.411.307.274.46.729.46 1.364 0 .646-.156 1.111-.468 1.396-.312.285-.819.427-1.52.427h-4.714c-.712 0-1.226-.142-1.544-.427-.318-.285-.477-.749-.477-1.396 0-.581.148-1.021.443-1.323.296-.301.734-.452 1.314-.452h.263v-12.254h-.263c-.559 0-.991-.156-1.298-.468s-.46-.758-.46-1.338c0-.635.162-1.098.484-1.388.323-.29.835-.436 1.536-.436h2.694c.646 0 1.084.086 1.314.255.23.169.487.512.772 1.026l6.258 11.399zM385.777 192.926h.279c.591 0 1.04.15 1.347.452s.46.742.46 1.323c0 .646-.162 1.111-.484 1.396-.323.285-.857.427-1.602.427h-4.944c-.756 0-1.292-.14-1.61-.419-.318-.279-.476-.747-.476-1.404 0-.635.159-1.089.476-1.364.318-.273.854-.411 1.61-.411h.575l-.674-1.922h-7.096l-.706 1.922h.575c.744 0 1.278.14 1.601.418.323.28.485.731.485 1.356 0 .646-.162 1.111-.485 1.396-.323.285-.857.427-1.601.427h-4.238c-.756 0-1.292-.142-1.61-.427-.318-.285-.477-.749-.477-1.396 0-.581.154-1.021.46-1.323.306-.301.755-.452 1.347-.452h.28l4.402-12.254h-1.314c-.745 0-1.279-.142-1.602-.427-.323-.285-.484-.744-.484-1.379 0-.646.161-1.112.484-1.397.323-.285.857-.427 1.602-.427h6.16c.974 0 1.659.526 2.053 1.578v.049l5.207 14.258zm-8.607-12.255l-2.382 6.932h4.763l-2.381-6.932zM405.366 189.558v3.368h1.692c.712 0 1.218.137 1.519.411.301.274.452.729.452 1.364 0 .646-.153 1.111-.46 1.396-.307.285-.811.427-1.511.427h-5.683c-.723 0-1.24-.142-1.552-.427-.312-.285-.468-.749-.468-1.396 0-.581.148-1.021.443-1.323.296-.301.728-.452 1.298-.452h.28v-12.254h-.28c-.558 0-.988-.156-1.289-.468-.301-.312-.452-.758-.452-1.338 0-.635.159-1.098.476-1.388.318-.29.832-.436 1.544-.436h6.784c2.683 0 4.711.515 6.086 1.544 1.374 1.029 2.062 2.546 2.062 4.55 0 2.113-.685 3.712-2.054 4.796-1.369 1.085-3.4 1.627-6.094 1.627h-2.793zm0-8.887v5.191h2.332c1.292 0 2.264-.218 2.916-.657.652-.438.978-1.095.978-1.971 0-.822-.337-1.454-1.011-1.897-.674-.444-1.634-.666-2.883-.666h-2.332zM437.277 176.499c2.691 0 4.908.964 6.647 2.891 1.74 1.928 2.609 4.386 2.609 7.375 0 3.012-.864 5.476-2.593 7.392-1.729 1.917-3.95 2.875-6.663 2.875-2.68 0-4.896-.966-6.647-2.899-1.751-1.932-2.626-4.389-2.626-7.368 0-3 .867-5.461 2.601-7.383 1.735-1.922 3.959-2.883 6.672-2.883zm0 3.811c-1.41 0-2.517.57-3.32 1.709-.803 1.139-1.205 2.721-1.205 4.747 0 2.027.404 3.614 1.213 4.764.809 1.15 1.912 1.724 3.312 1.724 1.411 0 2.519-.572 3.328-1.717.81-1.144 1.214-2.735 1.214-4.772 0-2.026-.402-3.608-1.206-4.747-.803-1.139-1.915-1.708-3.336-1.708zM465.082 180.671v12.254h7.474v-2.924c0-.756.134-1.292.402-1.61.268-.317.715-.476 1.339-.476s1.079.162 1.364.484c.285.323.427.857.427 1.602v5.043c0 .591-.115.985-.345 1.183-.231.197-.69.295-1.38.295h-14.898c-.712 0-1.221-.142-1.528-.427-.307-.285-.46-.749-.46-1.396 0-.635.15-1.089.452-1.364.301-.273.812-.411 1.536-.411h1.446V180.67h-1.446c-.712 0-1.221-.142-1.528-.427-.307-.285-.46-.744-.46-1.379s.161-1.098.484-1.388c.323-.29.835-.436 1.536-.436h6.998c.701 0 1.212.146 1.536.436.323.29.485.753.485 1.388 0 .635-.159 1.095-.476 1.379-.318.285-.833.427-1.544.427h-1.414zM501.447 180.507h-7.638v4.205h2.891v-.197c0-.624.137-1.089.411-1.396.273-.307.69-.46 1.248-.46.493 0 .895.14 1.207.419.313.28.468.632.468 1.06 0 .022.005.093.017.213.01.121.017.241.017.362v3.4c0 .734-.132 1.26-.394 1.578-.263.317-.69.476-1.282.476-.558 0-.98-.148-1.265-.444-.285-.295-.427-.734-.427-1.314v-.296h-2.891v4.912h7.638v-1.955c0-.734.14-1.259.419-1.577.28-.318.736-.476 1.371-.476.625 0 1.07.155 1.339.467.268.313.402.841.402 1.586v3.976c0 .591-.114.985-.345 1.183-.23.197-.684.295-1.363.295h-13.454c-.722 0-1.24-.142-1.552-.427-.312-.285-.468-.749-.468-1.396 0-.581.148-1.021.444-1.323s.729-.452 1.298-.452h.279v-12.254h-.279c-.559 0-.989-.156-1.29-.468-.301-.312-.452-.758-.452-1.338 0-.635.159-1.098.477-1.388.317-.29.832-.436 1.544-.436h13.454c.667 0 1.119.101 1.355.304.235.203.353.605.353 1.207v3.679c0 .745-.137 1.279-.411 1.602-.273.323-.717.485-1.33.485-.635 0-1.092-.164-1.371-.494-.28-.328-.419-.86-.419-1.593v-1.725zM531.703 180.638h-3.433v12.254h2.76c.733 0 1.259.142 1.577.427.317.285.476.745.476 1.38 0 .646-.159 1.111-.476 1.396-.318.285-.844.427-1.577.427h-9.758c-.722 0-1.243-.142-1.56-.427-.318-.285-.477-.749-.477-1.396 0-.646.156-1.109.468-1.388.312-.28.835-.419 1.569-.419h2.76v-12.254h-3.433l-.099 3.335v.411c0 .526-.145.936-.435 1.232-.291.296-.693.444-1.207.444-.614 0-1.066-.156-1.356-.468s-.435-.807-.435-1.487v-.131l.181-4.912c.033-.974.167-1.56.403-1.758.235-.197.715-.295 1.437-.295h14.126c.723 0 1.202.099 1.438.295.235.197.375.784.418 1.758l.164 4.912v.131c0 .69-.137 1.188-.411 1.495-.273.307-.717.46-1.33.46-.591 0-1.016-.15-1.273-.452-.258-.301-.397-.846-.419-1.634l-.098-3.336zM563.812 192.926h.28c.591 0 1.04.15 1.347.452.306.301.459.742.459 1.323 0 .646-.162 1.111-.485 1.396-.323.285-.857.427-1.601.427h-4.944c-.756 0-1.292-.14-1.61-.419-.318-.279-.476-.747-.476-1.404 0-.635.158-1.089.476-1.364.318-.273.854-.411 1.61-.411h.575l-.674-1.922h-7.096l-.707 1.922h.575c.745 0 1.279.14 1.602.418.322.28.484.731.484 1.356 0 .646-.162 1.111-.484 1.396-.323.285-.857.427-1.602.427h-4.238c-.756 0-1.292-.142-1.61-.427-.317-.285-.476-.749-.476-1.396 0-.581.153-1.021.46-1.323.307-.301.756-.452 1.347-.452h.28l4.402-12.254h-1.314c-.745 0-1.279-.142-1.601-.427-.323-.285-.485-.744-.485-1.379 0-.646.162-1.112.485-1.397.322-.285.856-.427 1.601-.427h6.16c.974 0 1.659.526 2.053 1.578v.049l5.207 14.258zm-8.607-12.255l-2.382 6.932h4.764l-2.382-6.932zM589.974 189.722v-9.051h-.903c-.722 0-1.24-.142-1.552-.427-.312-.285-.468-.744-.468-1.379s.156-1.098.468-1.388c.312-.29.83-.436 1.552-.436h4.665c.712 0 1.227.146 1.544.436.317.29.476.753.476 1.388 0 .58-.15 1.026-.452 1.338-.301.312-.731.468-1.289.468h-.28v14.915c0 .515-.055.838-.164.97-.109.131-.356.197-.739.197h-1.642c-.526 0-.895-.055-1.109-.164-.213-.109-.397-.301-.549-.575l-6.834-12.008v8.92h.953c.711 0 1.22.137 1.527.411.307.274.46.729.46 1.364 0 .646-.156 1.111-.468 1.396-.312.285-.819.427-1.519.427h-4.715c-.712 0-1.227-.142-1.544-.427-.317-.285-.476-.749-.476-1.396 0-.581.148-1.021.444-1.323.295-.301.733-.452 1.314-.452h.263v-12.254h-.263c-.558 0-.992-.156-1.297-.468-.307-.312-.46-.758-.46-1.338 0-.635.162-1.098.485-1.388.322-.29.835-.436 1.536-.436h2.694c.646 0 1.084.086 1.314.255.23.169.487.512.772 1.026l6.256 11.399zM624.161 192.926h.28c.591 0 1.04.15 1.347.452.306.301.459.742.459 1.323 0 .646-.162 1.111-.485 1.396-.323.285-.857.427-1.601.427h-4.944c-.756 0-1.292-.14-1.61-.419-.318-.279-.476-.747-.476-1.404 0-.635.158-1.089.476-1.364.318-.273.854-.411 1.61-.411h.575l-.674-1.922h-7.096l-.707 1.922h.575c.745 0 1.279.14 1.602.418.322.28.484.731.484 1.356 0 .646-.162 1.111-.484 1.396-.323.285-.857.427-1.602.427h-4.238c-.756 0-1.292-.142-1.61-.427-.317-.285-.476-.749-.476-1.396 0-.581.153-1.021.46-1.323.307-.301.756-.452 1.347-.452h.28l4.402-12.254h-1.314c-.745 0-1.279-.142-1.601-.427-.323-.285-.485-.744-.485-1.379 0-.646.162-1.112.485-1.397.322-.285.856-.427 1.601-.427h6.16c.974 0 1.659.526 2.053 1.578v.049l5.207 14.258zm-8.607-12.255l-2.382 6.932h4.764l-2.382-6.932z"/></g></svg>